<?xml version="1.0" encoding="iso-8859-1"?>
<!-- Generator: Adobe Illustrator 16.0.0, SVG Export Plug-In . SVG Version: 6.00 Build 0)  -->
<!DOCTYPE svg PUBLIC "-//W3C//DTD SVG 1.1//EN" "http://www.w3.org/Graphics/SVG/1.1/DTD/svg11.dtd">
<svg version="1.1" id="Capa_1" xmlns="http://www.w3.org/2000/svg" xmlns:xlink="http://www.w3.org/1999/xlink" x="0px" y="0px"
	 width="119.126px" height="119.126px" viewBox="0 0 119.126 119.126" style="enable-background:new 0 0 119.126 119.126;"
	 xml:space="preserve">
<g>
	<path d="M105.276,0c0.092,0.993-0.04,1.623-0.513,2.412c2.869,2.361,6.032,1.597,9.206,0.708c0.102,0.193-1.219,1.892-2.133,2.849
		c-0.716,0.739-2.427,2.173-2.224,2.892c0.894,3.172,0.797,6.338,0.848,9.572c0.066,3.801,0.924,7.587,1.198,11.393
		c0.157,2.217-1.727,4.078-3.706,4.131c-3.474,0.086-4.627-1.025-5.327-3.689c-0.538-2.049-1.985-3.861-3.275-6.258
		c-0.64,1.066-1.147,1.554-1.239,2.115c-0.66,3.864-0.822,7.848,1.366,11.194c2.087,3.225,2.985,6.479,2.417,10.187
		c-0.224,1.447,0.32,2.163,1.523,3.001c3.291,2.293,6.388,4.857,9.577,7.303c1.696,1.305,2.204,3.27,1.432,4.945
		c-1.889,4.124,0.011,7.846,0.6,11.726c0.198,1.284,0.162,2.768-0.3,3.961c-1.138,2.93-2.447,5.809-3.931,8.576
		c-1.117,2.082-2.62,2.006-4.001,0.046c-1.676-2.396-1.412-5.083,0.711-7.186c2.153-2.138,2.153-2.138,1.076-7.124
		c-0.213,0.427-0.548,0.838-0.619,1.284c-0.762,4.52-4.662,4.789-7.922,5.652c-1.889,0.508-3.961,0.305-5.921,0.427
		c-0.457-2.56,0.731-6.597,2.366-7.059c1.234-0.351,2.732,0.224,4.123,0.386c0.011,0.224,0.031,0.447,0.041,0.67
		c0.396-0.37,0.782-1.046,1.178-1.056c3.337-0.102,4.007-2.93,5.256-5.083c1.244-2.153,0.305-3.728-2.219-3.885
		c-4.586-0.3-9.176-0.523-13.756-0.782c-0.254-0.021-0.559,0.046-0.752-0.081c-3.26-2.207-5.957-0.152-8.729,1.157
		C74.001,68,65.979,70.204,57.635,71.28c-1.747,0.224-2.308,1-2.625,2.676c-0.437,2.331-1.092,4.697-2.085,6.851
		c-1.452,3.144-1.543,4.677,0.904,7.256c2.412,2.539,5.159,4.773,7.573,7.312c0.879,0.944,1.326,2.347,1.793,3.616
		c0.279,0.761,0.005,1.736,0.325,2.468c1.563,3.595-0.203,6.448-1.833,9.384c-3.349-2.174-4.753-5.53-4.053-9.364
		c0.089-0.497,0.038-1.193-0.254-1.554c-3.209-3.859-6.578-7.525-11.352-9.566c-1.186-0.519-2.168-1.493-3.291-2.285
		c-2.435,1.422-4.009,4.255-3.235,7.059c1.45,5.271,3.88,9.942,7.889,13.934c2.448,2.438,3.867,5.911,5.934,9.211
		c-2.996,1.442-5.367,0.812-7.65-0.142c-1.919-0.803-3.037-2.265-2.917-4.51c0.031-0.609-0.104-1.64-0.457-1.797
		c-3.095-1.32-3.63-4.459-5.04-6.937c-2.521-4.418-4.83-8.968-7.363-13.376c-0.939-1.64-1.231-3.047,0.053-4.57
		c0.213-0.254,0.333-0.578,0.541-0.843c2.704-3.412,3.311-6.652,0-10.237c-1.384-1.482-1.919-3.757-3.09-6.194
		c-0.457,4.646-0.635,8.693-1.305,12.669c-0.629,3.697-1.589,7.414-4.512,10.136c-0.65,0.594-1.656,0.808-2.456,1.265
		c-1.14,0.649-2.277,1.31-3.344,2.062c-0.53,0.376-0.914,0.965-1.335,1.482c-2.534,3.148-4.311,7.119-9.475,7.841
		c-1.153-0.803-1.257-2.387-0.536-4.144c1.514-3.656,3.07-7.292,4.588-10.897c-1.219,0.559-2.534,1.157-4.385,2.001
		c1.452-1.788,2.783-2.966,3.537-4.448c1.503-2.95,3.151-5.952,3.92-9.131c2.346-9.668,7.317-17.392,15.361-23.303
		c3.326-2.435,6.104-5.631,9.329-8.247c3.306-2.684,7.129-3.859,11.506-4.296c3.702-0.371,7.264-2.298,10.836-3.671
		c0.635-0.244,1.021-1.14,1.955-2.257c-1.247,0.104-1.777,0.249-2.282,0.178c-1.028-0.158-2.517,0.738-2.829-1.295
		c-0.059-0.366-1.216-0.562-2.417-1.066c1.326-1.363,2.526-2.6,3.867-3.974c-0.363-0.244-0.795-0.531-1.846-1.227
		c0.688-0.373,1.244-0.675,1.587-0.858c-0.942-1.363-1.861-2.693-2.57-3.722c2.087-1.229,4.024-2.372,6.215-3.661
		c-0.655-0.287-1.03-0.447-1.638-0.714c0.399-0.254,0.65-0.388,0.879-0.556c0.487-0.358,0.962-0.734,1.444-1.097
		c-0.368-0.417-0.713-0.849-1.107-1.237c-0.566-0.559-1.166-1.077-2.178-2.013c1.495-0.267,2.277-0.406,3.347-0.592
		c-0.463-0.589-0.78-0.995-1.257-1.602c6.025,1.356,9.61-3.25,14.378-5.339c-0.274-0.6-0.518-1.14-0.63-1.389
		c2.945-1.374,5.724-2.887,8.653-3.979c5.215-1.945,10.618-2.902,16.188-1.835C101.077,1.161,103.337,2.668,105.276,0z"/>
</g>
<g>
</g>
<g>
</g>
<g>
</g>
<g>
</g>
<g>
</g>
<g>
</g>
<g>
</g>
<g>
</g>
<g>
</g>
<g>
</g>
<g>
</g>
<g>
</g>
<g>
</g>
<g>
</g>
<g>
</g>
</svg>
